# xmcd
#
# Track frame offsets: 
#        150
#        21452
#        39974
#        56136
#        70268
#        85381
#        105104
#        126120
#        141966
#        156926
#        170498
#        183707
#        202021
#        218958
#        232344
#        248010
#        264519
#
# Disc length: 3787 seconds
#
# Revision: 0
# Processed by: cddbd v1.5.2PL0 Copyright (c) Steve Scherf et al.
# Submitted via: ExactAudioCopy v1.1
#
DISCID=fe0ec911
DTITLE=未知艺术家 - 未知标题
DYEAR=1900
DGENRE=
TTITLE0=音轨01
TTITLE1=音轨02
TTITLE2=音轨03
TTITLE3=音轨04
TTITLE4=音轨05
TTITLE5=音轨06
TTITLE6=音轨07
TTITLE7=音轨08
TTITLE8=音轨09
TTITLE9=音轨10
TTITLE10=音轨11
TTITLE11=音轨12
TTITLE12=音轨13
TTITLE13=音轨14
TTITLE14=音轨15
TTITLE15=音轨16
TTITLE16=音轨17
EXTD=
EXTT0=
EXTT1=
EXTT2=
EXTT3=
EXTT4=
EXTT5=
EXTT6=
EXTT7=
EXTT8=
EXTT9=
EXTT10=
EXTT11=
EXTT12=
EXTT13=
EXTT14=
EXTT15=
EXTT16=
PLAYORDER=
